<svg width="858" height="322" viewBox="0 0 858 322" fill="none" xmlns="http://www.w3.org/2000/svg">
<path d="M672.93 228.8C674.837 228.8 676.267 227.847 677.22 226.893L682.94 220.22C683.893 219.267 683.893 217.36 682.94 216.407L606.673 144.43C605.72 143.477 604.29 143 602.86 143H519.92C517.06 143 514.2 145.383 514.2 148.72V223.08C514.2 226.417 517.06 228.8 519.92 228.8H672.93ZM457 216.883V154.917C457 147.29 460.337 140.14 465.58 134.42L506.097 94.38C511.34 88.66 518.49 85.8 526.117 85.8H551.857C554.24 85.8 555.67 82.4633 553.763 81.0333L516.107 44.8067C515.153 43.3767 514.2 41.9467 514.2 40.5167V5.72001C514.2 2.38333 517.06 0 519.92 0H654.817C662.443 0 670.07 2.85999 675.313 8.58L722.503 55.2933C723.457 56.7233 723.933 58.1533 723.933 59.5833V83.4167C723.933 84.8467 723.457 86.2767 722.503 87.7067L671.5 138.233C670.07 140.14 671.023 143 673.883 143H684.847C686.277 143 687.707 143.477 688.66 144.43L717.737 171.6C719.643 173.983 723.457 173.983 725.84 171.123L798.77 87.7067C799.723 86.2767 801.153 85.8 803.06 85.8H851.68C855.017 85.8 857.4 88.1833 857.4 91.52V107.25C857.4 108.68 856.923 110.11 855.97 111.063L766.357 214.023C765.403 214.977 765.403 216.883 766.357 217.837C770.17 221.173 773.03 224.51 776.367 227.37C777.32 228.323 778.75 228.8 780.18 228.8H823.08C826.417 228.8 828.8 231.183 828.8 234.52V280.28C828.8 283.617 826.417 286 823.08 286H758.73C757.3 286 755.87 285.523 754.917 284.57L731.56 262.643C729.177 260.26 725.363 260.737 723.457 263.12L705.343 284.093C703.913 285.047 702.483 286 701.053 286H526.117C518.49 286 511.34 283.14 506.097 277.42L465.58 237.38C460.337 231.66 457 224.51 457 216.883ZM587.13 47.6667C597.617 57.6767 619.067 78.1733 624.787 84.37C626.217 85.3233 627.647 85.8 629.077 85.8H661.013C664.35 85.8 666.733 83.4167 666.733 80.08V48.62C666.733 45.2833 664.35 42.9 661.013 42.9H589.037C586.653 42.9 585.223 46.2367 587.13 47.6667Z" fill="#455DFF"/>
<path d="M94.675 10.675H118.125V133H94.675V83.475H33.6V133H10.325V10.675H33.6V62.825H94.675V10.675ZM214.087 47.425C220.737 53.2 224.062 61.425 224.237 71.925V133H200.787V114.625C195.187 126.875 184.337 133.875 167.012 133.875H163.162C144.087 133.875 133.412 122.675 133.412 105.35C133.412 86.275 143.737 76.65 164.387 76.65H200.787V74.55C200.787 68.95 200.087 64.75 196.412 61.775C192.737 58.625 187.487 57.225 180.662 57.225C171.912 57.225 161.412 60.025 151.612 65.975L143.387 50.225C150.737 46.025 166.487 38.675 185.737 38.675C197.812 38.675 207.262 41.475 214.087 47.425ZM174.187 112.7C189.237 112.7 198.512 104.825 200.612 91.875H169.812C160.712 91.875 156.687 94.85 156.687 102.2C156.687 109.375 161.237 112.7 168.762 112.7H174.187ZM286.176 113.225C296.326 113.225 304.726 111.65 311.901 105.175L325.376 118.125C314.001 129.5 303.501 134.05 286.176 134.05C255.726 134.05 236.826 115.85 236.826 86.45V86.275C236.826 56.875 255.726 38.85 286.176 38.85C303.501 38.85 314.001 43.225 325.376 54.775L311.901 67.55C304.726 61.075 296.326 59.5 286.176 59.5C270.251 59.5 260.276 70 260.276 86.275V86.45C260.276 102.9 270.251 113.225 286.176 113.225ZM380.25 84.875L424.875 133.175H396.7L362.05 95.725V133H338.775V3.32499H362.05V74.55L394.25 39.55H421.9L380.25 84.875Z" fill="#E2E2E2"/>
<path d="M87.7394 222.064C102.715 225.235 112.229 237.04 112.229 253.777C112.229 273.333 99.3675 286.195 79.8111 286.195H23.4324H10.3948V163.043H71.7067C90.7345 163.043 103.067 175.375 103.067 194.403C103.067 207.265 97.2533 217.131 87.7394 222.064ZM64.6593 183.656H33.8272V213.431H64.6593C74.5256 213.431 79.6349 208.322 79.6349 198.455C79.6349 188.589 74.5256 183.656 64.6593 183.656ZM72.9399 265.581C83.1586 265.581 88.6203 260.12 88.6203 249.725C88.6203 239.506 83.1586 234.045 72.9399 234.045H33.8272V265.581H72.9399ZM148.915 286.195H125.483V155.643H148.915V286.195ZM233.02 192.113H256.629V286.195H233.02V269.105C227.735 280.733 218.397 287.076 203.598 287.076C179.108 287.076 165.014 269.281 165.014 240.035V192.113H188.622V240.035C188.622 256.244 196.903 266.462 210.821 266.462C224.564 266.462 233.02 256.244 233.02 240.035V192.113ZM306.329 186.475C306.329 187.356 306.329 188.765 306.329 188.765V195.813H329.233V212.55H306.329V286.195H282.721V212.55H270.212V195.989H282.721V188.765C283.073 165.862 296.111 153 319.191 153H329.233V173.614H319.191C310.382 173.614 306.329 177.842 306.329 186.475ZM371.538 186.475C371.538 187.356 371.538 188.765 371.538 188.765V195.813H394.442V212.55H371.538V286.195H347.929V212.55H335.42V195.989H347.929V188.765C348.282 165.862 361.319 153 384.399 153H394.442V173.614H384.399C375.59 173.614 371.538 177.842 371.538 186.475Z" fill="#E2E2E2"/>
</svg>
