<svg width="264" height="203" viewBox="0 0 264 203" fill="none" xmlns="http://www.w3.org/2000/svg">
<path opacity="0.1" d="M153.571 162.175C154.92 162.175 155.931 161.501 156.606 160.826L160.653 156.104C161.328 155.43 161.328 154.081 160.653 153.406L106.69 102.478C106.015 101.804 105.003 101.466 103.992 101.466H45.3064C43.2827 101.466 41.2591 103.153 41.2591 105.514V158.128C41.2591 160.489 43.2827 162.175 45.3064 162.175H153.571ZM0.786499 153.743V109.898C0.786499 104.502 3.1474 99.4427 6.85739 95.3955L35.5255 67.0647C39.2355 63.0174 44.2945 60.9938 49.6909 60.9938H67.9036C69.5899 60.9938 70.6017 58.6329 69.2527 57.621L42.6082 31.9884C41.9336 30.9766 41.2591 29.9648 41.2591 28.9529V4.33212C41.2591 1.97121 43.2827 0.284851 45.3064 0.284851H140.754C146.151 0.284851 151.547 2.30848 155.257 6.35574L188.647 39.4084C189.321 40.4202 189.659 41.432 189.659 42.4438V59.3074C189.659 60.3192 189.321 61.331 188.647 62.3428L152.559 98.0936C151.547 99.4427 152.221 101.466 154.245 101.466H162.002C163.014 101.466 164.026 101.804 164.701 102.478L185.274 121.703C186.623 123.389 189.321 123.389 191.008 121.365L242.61 62.3428C243.285 61.331 244.297 60.9938 245.646 60.9938H280.047C282.408 60.9938 284.095 62.6801 284.095 65.041V76.171C284.095 77.1828 283.757 78.1946 283.083 78.8692L219.676 151.72C219.001 152.394 219.001 153.743 219.676 154.418C222.374 156.779 224.398 159.14 226.759 161.163C227.433 161.838 228.445 162.175 229.457 162.175H259.811C262.172 162.175 263.858 163.862 263.858 166.223V198.601C263.858 200.962 262.172 202.648 259.811 202.648H214.279C213.268 202.648 212.256 202.311 211.581 201.636L195.055 186.122C193.369 184.435 190.67 184.772 189.321 186.459L176.505 201.299C175.493 201.973 174.481 202.648 173.47 202.648H49.6909C44.2945 202.648 39.2355 200.624 35.5255 196.577L6.85739 168.246C3.1474 164.199 0.786499 159.14 0.786499 153.743ZM92.8617 34.012C100.282 41.0947 115.459 55.5974 119.506 59.9819C120.518 60.6565 121.53 60.9938 122.542 60.9938H145.139C147.5 60.9938 149.186 59.3074 149.186 56.9465V34.6866C149.186 32.3257 147.5 30.6393 145.139 30.6393H94.2107C92.5244 30.6393 91.5126 33.0002 92.8617 34.012Z" fill="#455DFF"/>
</svg>
