<svg width="16" height="17" viewBox="0 0 16 17" fill="none" xmlns="http://www.w3.org/2000/svg">
<path d="M7.99964 8.51607C8.6149 7.90081 7.57227 5.86064 5.67086 3.95923C3.76945 2.05782 1.72928 1.01519 1.11402 1.63045C0.498766 2.24571 1.5414 4.28587 3.44281 6.18728C5.34422 8.08869 7.38438 9.13133 7.99964 8.51607Z" fill="#455DFF"/>
<path d="M5.6711 13.0728C7.57251 11.1714 8.61514 9.13121 7.99988 8.51595C7.38463 7.90069 5.34446 8.94332 3.44305 10.8447C1.54164 12.7461 0.49901 14.7863 1.11427 15.4016C1.72953 16.0168 3.76969 14.9742 5.6711 13.0728Z" fill="#455DFF"/>
<path d="M14.8862 15.4021C15.5015 14.7869 14.4589 12.7467 12.5575 10.8453C10.656 8.94387 8.61588 7.90124 8.00062 8.5165C7.38536 9.13176 8.42799 11.1719 10.3294 13.0733C12.2308 14.9747 14.271 16.0174 14.8862 15.4021Z" fill="#455DFF"/>
<path d="M12.5572 6.18699C14.4586 4.28558 15.5013 2.24542 14.886 1.63016C14.2707 1.0149 12.2306 2.05753 10.3292 3.95894C8.42775 5.86035 7.38512 7.90051 8.00038 8.51577C8.61564 9.13103 10.6558 8.0884 12.5572 6.18699Z" fill="#455DFF"/>
</svg>
