<svg width="16" height="17" viewBox="0 0 16 17" fill="none" xmlns="http://www.w3.org/2000/svg">
<path d="M12.0003 6.92211C10.6653 6.92211 9.48464 7.14083 8.75755 7.47607C9.08232 6.72625 9.29421 5.5068 9.29421 4.12867C9.29421 1.84847 8.71462 0 8 0C7.28538 0 6.70579 1.84847 6.70579 4.12867C6.70579 5.5068 6.91768 6.72554 7.24245 7.47607C6.51606 7.14083 5.33472 6.92211 3.99965 6.92211C1.7907 6.92211 0 7.52039 0 8.25806C0 8.99574 1.7907 9.59402 3.99965 9.59402C5.33472 9.59402 6.51536 9.37529 7.24245 9.04005C6.91768 9.78988 6.70579 11.0093 6.70579 12.3875C6.70579 14.6677 7.28538 16.5161 8 16.5161C8.71462 16.5161 9.29421 14.6677 9.29421 12.3875C9.29421 11.0093 9.08232 9.79059 8.75755 9.04005C9.48394 9.37529 10.6653 9.59402 12.0003 9.59402C14.2093 9.59402 16 8.99574 16 8.25806C16 7.52039 14.2093 6.92211 12.0003 6.92211Z" fill="#455DFF"/>
</svg>
