<svg width="401" height="286" viewBox="0 0 401 286" fill="none" xmlns="http://www.w3.org/2000/svg">
<path d="M215.93 228.8C217.837 228.8 219.267 227.847 220.22 226.893L225.94 220.22C226.893 219.267 226.893 217.36 225.94 216.407L149.673 144.43C148.72 143.477 147.29 143 145.86 143H62.92C60.06 143 57.2 145.383 57.2 148.72V223.08C57.2 226.417 60.06 228.8 62.92 228.8H215.93ZM0 216.883V154.917C0 147.29 3.33667 140.14 8.58 134.42L49.0967 94.38C54.34 88.66 61.49 85.8 69.1167 85.8H94.8567C97.24 85.8 98.67 82.4633 96.7633 81.0333L59.1067 44.8067C58.1533 43.3767 57.2 41.9467 57.2 40.5167V5.72001C57.2 2.38333 60.06 0 62.92 0H197.817C205.443 0 213.07 2.85999 218.313 8.58L265.503 55.2933C266.457 56.7233 266.933 58.1533 266.933 59.5833V83.4167C266.933 84.8467 266.457 86.2767 265.503 87.7067L214.5 138.233C213.07 140.14 214.023 143 216.883 143H227.847C229.277 143 230.707 143.477 231.66 144.43L260.737 171.6C262.643 173.983 266.457 173.983 268.84 171.123L341.77 87.7067C342.723 86.2767 344.153 85.8 346.06 85.8H394.68C398.017 85.8 400.4 88.1833 400.4 91.52V107.25C400.4 108.68 399.923 110.11 398.97 111.063L309.357 214.023C308.403 214.977 308.403 216.883 309.357 217.837C313.17 221.173 316.03 224.51 319.367 227.37C320.32 228.323 321.75 228.8 323.18 228.8H366.08C369.417 228.8 371.8 231.183 371.8 234.52V280.28C371.8 283.617 369.417 286 366.08 286H301.73C300.3 286 298.87 285.523 297.917 284.57L274.56 262.643C272.177 260.26 268.363 260.737 266.457 263.12L248.343 284.093C246.913 285.047 245.483 286 244.053 286H69.1167C61.49 286 54.34 283.14 49.0967 277.42L8.58 237.38C3.33667 231.66 0 224.51 0 216.883ZM130.13 47.6667C140.617 57.6767 162.067 78.1733 167.787 84.37C169.217 85.3233 170.647 85.8 172.077 85.8H204.013C207.35 85.8 209.733 83.4167 209.733 80.08V48.62C209.733 45.2833 207.35 42.9 204.013 42.9H132.037C129.653 42.9 128.223 46.2367 130.13 47.6667Z" fill="#455DFF"/>
</svg>
