<svg width="24" height="17" viewBox="0 0 24 17" fill="none" xmlns="http://www.w3.org/2000/svg">
<path d="M6.27203 0.302551H0.978068C0.867915 0.302551 0.775363 0.381794 0.763258 0.491279C0.625635 1.736 0.00385565 8.83609 3.20584 12.7331C7.09579 17.4674 16.4728 15.0027 18.1565 14.512C18.2918 14.4726 18.4297 14.5664 18.4425 14.7067L18.629 16.7588C18.6471 16.9573 18.8986 17.0314 19.0214 16.8745L23.27 11.4458C23.3383 11.3585 23.331 11.234 23.253 11.1553L18.4327 6.29238C18.2944 6.15284 18.0565 6.25079 18.0565 6.44727V9.06251C18.0565 9.1532 18.0048 9.23295 17.9197 9.26412C16.9287 9.62681 10.8229 11.7228 8.48605 9.21293C6.38346 6.9546 6.45283 1.69508 6.49551 0.532658C6.50016 0.405928 6.39885 0.302551 6.27203 0.302551Z" fill="#455DFF"/>
</svg>
