<svg width="10" height="11" viewBox="0 0 10 11" fill="none" xmlns="http://www.w3.org/2000/svg">
<path d="M9.00689 7.19358C8.90629 7.13548 8.79896 7.10076 8.69057 7.0873C8.62574 7.07915 8.56092 7.08128 8.49681 7.08836L8.49857 7.08553C7.49469 7.1911 6.62117 6.68664 6.21062 5.76452L6.20885 5.76772C6.19645 5.73973 6.18087 5.7128 6.16564 5.68624C6.18087 5.65967 6.19645 5.63274 6.20885 5.60476L6.21062 5.60759C6.62117 4.68548 7.49469 4.18102 8.49857 4.28659L8.49681 4.28376C8.56092 4.29084 8.62574 4.29296 8.69057 4.28481C8.79896 4.27135 8.90664 4.23664 9.00689 4.17854C9.30798 4.0046 9.46101 3.67126 9.42098 3.3457C9.40752 3.2373 9.37281 3.1296 9.31471 3.02935C9.08269 2.62763 8.5673 2.48947 8.1656 2.7215C8.065 2.7796 7.98105 2.85506 7.91551 2.94256C7.8762 2.99463 7.84573 3.05167 7.81952 3.11083L7.81775 3.10799C7.4072 4.03011 6.53368 4.53456 5.5298 4.429L5.53156 4.43183C5.5011 4.42864 5.47029 4.42864 5.43947 4.42864C5.42388 4.40207 5.40865 4.37515 5.39058 4.35035H5.39413C4.8008 3.53345 4.8008 2.52489 5.39413 1.70834H5.39094C5.42919 1.65627 5.4632 1.60136 5.4887 1.54114C5.53121 1.44053 5.55495 1.33001 5.55495 1.21417C5.55495 0.86629 5.34277 0.566948 5.04096 0.439063C4.94036 0.396553 4.82985 0.372818 4.71401 0.372818C4.25033 0.372818 3.87272 0.750096 3.87272 1.21417C3.87272 1.33001 3.89645 1.44089 3.93896 1.54149C3.96446 1.60172 3.99847 1.65662 4.03673 1.7087H4.03354C4.62687 2.5256 4.62687 3.53416 4.03354 4.35071H4.03708C4.01902 4.37551 4.00379 4.40243 3.9882 4.429C3.95738 4.429 3.92656 4.429 3.8961 4.43218L3.89787 4.42935C2.89399 4.53492 2.02046 4.03046 1.60992 3.10835L1.60814 3.11118C1.58228 3.05202 1.55147 2.99498 1.51215 2.94291C1.44626 2.85576 1.36231 2.77995 1.26206 2.72186C0.960969 2.54792 0.595407 2.58228 0.333633 2.7796C0.246494 2.84549 0.170689 2.92945 0.112596 3.0297C-0.119423 3.43143 0.0187323 3.94686 0.420426 4.17889C0.521027 4.23699 0.628355 4.27171 0.737103 4.28517C0.801927 4.29332 0.866749 4.29119 0.930864 4.28411L0.929092 4.28694C1.93297 4.18138 2.8065 4.68583 3.21705 5.60795L3.21882 5.60511C3.23122 5.6331 3.2468 5.66002 3.26204 5.68659C3.2468 5.71316 3.23122 5.74008 3.21882 5.76807L3.21705 5.76488C2.8065 6.68735 1.93297 7.19145 0.929092 7.08588L0.930864 7.08872C0.866749 7.08163 0.801927 7.0795 0.737103 7.08765C0.62871 7.10111 0.521018 7.13583 0.420772 7.19393C0.119325 7.36787 -0.0333453 7.70122 0.00668241 8.02677C0.020143 8.13517 0.0548573 8.24287 0.112951 8.34312C0.344969 8.74484 0.860368 8.883 1.26206 8.65096C1.36266 8.59287 1.44662 8.51706 1.51215 8.42991C1.55147 8.37784 1.58228 8.3208 1.60814 8.26164L1.60992 8.26448C2.02046 7.34236 2.89399 6.83791 3.89787 6.94347L3.8961 6.94064C3.92656 6.94383 3.95738 6.94383 3.9882 6.94383C4.00379 6.9704 4.01902 6.99732 4.03708 7.02212H4.03354C4.62687 7.83902 4.62687 8.84758 4.03354 9.66413H4.03673C3.99847 9.7162 3.96446 9.77111 3.93896 9.83133C3.89645 9.93194 3.87272 10.0425 3.87272 10.1587C3.87272 10.5065 4.08491 10.8059 4.38671 10.9338C4.48731 10.9763 4.59783 11 4.71401 11C5.1777 11 5.5553 10.6227 5.5553 10.1587C5.5553 10.0428 5.53157 9.93194 5.48906 9.83133C5.46355 9.77111 5.42955 9.7162 5.39129 9.66413H5.39448C4.80115 8.84722 4.80115 7.83867 5.39448 7.02212H5.39094C5.409 6.99732 5.42424 6.9704 5.43982 6.94383C5.47064 6.94383 5.50145 6.94383 5.53192 6.94064L5.53015 6.94347C6.53403 6.83791 7.40755 7.34236 7.8181 8.26448L7.81987 8.26164C7.84609 8.3208 7.87655 8.37784 7.91587 8.42991C7.98176 8.51706 8.06571 8.59287 8.16596 8.65096C8.4674 8.8249 8.83261 8.79054 9.09403 8.59322C9.18117 8.52733 9.25697 8.44337 9.31507 8.34312C9.54709 7.9414 9.40894 7.42561 9.00725 7.19393L9.00689 7.19358Z" fill="#455DFF"/>
</svg>
