<svg width="16" height="16" viewBox="0 0 16 16" fill="none" xmlns="http://www.w3.org/2000/svg">
<path d="M16 8C16 7.28507 14.2094 6.70589 12.0004 6.70589C11.6661 6.70589 11.3422 6.71917 11.0316 6.74426C11.2685 6.54284 11.5075 6.32297 11.7436 6.08688C13.3055 4.52495 14.1621 2.84866 13.6567 2.34326C13.1513 1.83787 11.4751 2.69446 9.91312 4.25639C9.67703 4.49248 9.45716 4.73153 9.25574 4.96837C9.28083 4.65849 9.29411 4.33386 9.29411 3.99963C9.29411 1.79065 8.71493 0 8 0C7.28507 0 6.70589 1.79065 6.70589 3.99963C6.70589 4.33386 6.71917 4.65775 6.74426 4.96837C6.54284 4.73153 6.32297 4.49248 6.08688 4.25639C4.52495 2.69446 2.84866 1.83787 2.34326 2.34326C1.83787 2.84866 2.69446 4.52495 4.25639 6.08688C4.49248 6.32297 4.73153 6.54284 4.96837 6.74426C4.65849 6.71917 4.33386 6.70589 3.99963 6.70589C1.79065 6.70589 0 7.28507 0 8C0 8.71493 1.79065 9.29411 3.99963 9.29411C4.33386 9.29411 4.65775 9.28083 4.96837 9.25574C4.73153 9.45716 4.49248 9.67703 4.25639 9.91313C2.69446 11.4751 1.83787 13.1513 2.34326 13.6567C2.84866 14.1621 4.52495 13.3055 6.08688 11.7436C6.32297 11.5075 6.54284 11.2685 6.74426 11.0316C6.71917 11.3415 6.70589 11.6661 6.70589 12.0004C6.70589 14.2094 7.28507 16 8 16C8.71493 16 9.29411 14.2094 9.29411 12.0004C9.29411 11.6661 9.28083 11.3422 9.25574 11.0316C9.45716 11.2685 9.67703 11.5075 9.91312 11.7436C11.4751 13.3055 13.1513 14.1621 13.6567 13.6567C14.1621 13.1513 13.3055 11.4751 11.7436 9.91313C11.5075 9.67703 11.2685 9.45716 11.0316 9.25574C11.3415 9.28083 11.6661 9.29411 12.0004 9.29411C14.2094 9.29411 16 8.71493 16 8Z" fill="#455DFF"/>
</svg>
